<?xml version="1.0" encoding="utf-8"?>
<!-- Generator: Adobe Illustrator 22.1.0, SVG Export Plug-In . SVG Version: 6.00 Build 0)  -->
<svg version="1.1" id="Layer_1" xmlns="http://www.w3.org/2000/svg" xmlns:xlink="http://www.w3.org/1999/xlink" x="0px" y="0px"
	 viewBox="0 0 24 24" style="enable-background:new 0 0 24 24;" xml:space="preserve">
<title>ankle-tracker</title>
<g>
	<path d="M18.752,24.004c-0.414,0-0.75-0.336-0.75-0.75V22.61c0.001-0.756-0.374-1.457-1.002-1.876l-4.248-2.833v5.349
		c0,0.414-0.336,0.75-0.75,0.75s-0.75-0.336-0.75-0.75v-5.349l-4.248,2.833c-0.628,0.419-1.003,1.12-1.002,1.875v0.645
		c0,0.414-0.336,0.75-0.75,0.75s-0.75-0.336-0.75-0.75V22.61c-0.001-1.258,0.623-2.426,1.67-3.124l5.08-3.387V14.25h-2.25
		c-1.241,0-2.25-1.009-2.25-2.25V6c0-1.241,1.009-2.25,2.25-2.25h2.25v-3c0-0.414,0.336-0.75,0.75-0.75s0.75,0.336,0.75,0.75v3h2.25
		c1.241,0,2.25,1.009,2.25,2.25v6c0,1.241-1.009,2.25-2.25,2.25h-2.25v1.849l5.08,3.387c1.047,0.698,1.672,1.867,1.67,3.125v0.643
		C19.502,23.667,19.165,24.004,18.752,24.004z M9.002,5.25c-0.414,0-0.75,0.336-0.75,0.75v6c0,0.414,0.336,0.75,0.75,0.75h6
		c0.414,0,0.75-0.336,0.75-0.75V6c0-0.414-0.336-0.75-0.75-0.75H9.002z"/>
	<path d="M19.838,11.05c-0.156,0-0.306-0.048-0.433-0.138c-0.164-0.116-0.272-0.289-0.306-0.486
		c-0.034-0.198,0.011-0.396,0.127-0.56c0.367-0.518,0.367-1.214,0-1.733c-0.116-0.163-0.161-0.362-0.127-0.56
		c0.034-0.197,0.142-0.37,0.306-0.486c0.128-0.09,0.278-0.138,0.433-0.138c0.243,0,0.472,0.118,0.612,0.317
		c0.734,1.037,0.734,2.43,0,3.467C20.31,10.932,20.082,11.05,19.838,11.05z"/>
	<path d="M21.002,14.059c-0.246,0-0.476-0.12-0.616-0.322c-0.114-0.164-0.158-0.363-0.123-0.56s0.145-0.369,0.31-0.483
		c0.438-0.305,0.816-0.683,1.121-1.121c0.686-0.985,0.947-2.18,0.735-3.365c-0.212-1.185-0.871-2.215-1.856-2.901
		c-0.339-0.236-0.423-0.705-0.187-1.044c0.14-0.201,0.37-0.322,0.615-0.322c0.154,0,0.302,0.047,0.428,0.134
		c1.314,0.915,2.193,2.289,2.475,3.868c0.283,1.58-0.065,3.173-0.98,4.486c-0.406,0.584-0.909,1.087-1.495,1.495
		C21.304,14.012,21.156,14.059,21.002,14.059z"/>
	<path d="M4.165,11.05c-0.243,0-0.472-0.118-0.612-0.316c-0.734-1.037-0.734-2.43,0-3.467C3.693,7.068,3.922,6.95,4.165,6.95
		c0.156,0,0.306,0.048,0.433,0.138C4.762,7.204,4.87,7.376,4.904,7.574c0.034,0.198-0.011,0.396-0.127,0.56
		c-0.367,0.518-0.367,1.215,0,1.733c0.239,0.337,0.159,0.806-0.178,1.046C4.471,11.002,4.321,11.05,4.165,11.05z"/>
	<path d="M3.001,14.059c-0.154,0-0.302-0.047-0.429-0.135c-0.584-0.407-1.087-0.91-1.494-1.495c-1.891-2.715-1.22-6.463,1.495-8.354
		C2.7,3.987,2.848,3.941,3.002,3.941c0.246,0,0.476,0.12,0.616,0.321C3.854,4.602,3.77,5.07,3.431,5.306
		C2.446,5.992,1.786,7.023,1.574,8.207c-0.212,1.185,0.049,2.38,0.735,3.365c0.305,0.439,0.682,0.816,1.121,1.122
		c0.164,0.114,0.274,0.286,0.31,0.483s-0.008,0.396-0.123,0.561C3.477,13.939,3.247,14.059,3.001,14.059z"/>
	<path d="M12.002,11.25c-1.241,0-2.25-1.009-2.25-2.25s1.009-2.25,2.25-2.25c1.241,0,2.25,1.009,2.25,2.25
		S13.243,11.25,12.002,11.25z M12.002,8.25c-0.414,0-0.75,0.336-0.75,0.75s0.336,0.75,0.75,0.75s0.75-0.336,0.75-0.75
		S12.415,8.25,12.002,8.25z"/>
</g>
</svg>
