<svg width="960" height="960" xmlns="http://www.w3.org/2000/svg">
 <!-- Created with UXWing SVG Editor - https://uxwing.com/svg-icon-editor/ -->

 <g>
  <title>background</title>
  <rect fill="none" id="canvas_background" height="962" width="962" y="-1" x="-1"/>
  <g display="none" overflow="visible" y="0" x="0" height="100%" width="100%" id="canvasGrid">
   <rect fill="url(#gridpattern)" stroke-width="0" y="0" x="0" height="100%" width="100%"/>
  </g>
 </g>
 <g>
  <title>Layer 1</title>
  <g stroke="null" transform="translate(1.2586039304733276,121.79426574707031) scale(1.884303331375122,1.916771411895752) translate(-1.2586039304733276,-121.79426574707031) " id="svg_37">
   <path stroke="null" id="svg_23" d="m472.743669,358.046485a10.839905,11.284154 0 0 0 8.068256,-13.565154c-9.248504,-40.901911 -37.864692,-74.764444 -75.405299,-89.754594c-18.671143,-77.407987 -86.612822,-132.93247 -163.856212,-132.93247c-77.683565,0 -145.746171,55.942414 -164.073881,133.939534a122.595888,127.620206 0 0 0 -76.217929,118.037991c0,68.767377 51.36983,124.437884 117.183191,127.313052a11.043062,11.495637 0 0 0 1.601075,0.120848l18.767885,0a10.835068,11.279119 0 0 0 0,-22.563273l-17.577962,0c-0.280551,-0.030212 -0.561102,-0.050353 -0.84649,-0.060424c-54.659046,-1.822786 -97.452726,-47.860724 -97.452726,-104.810203a100.877382,105.011616 0 0 1 67.409599,-98.994408a10.830231,11.274083 0 0 0 7.042794,-8.358633c14.027543,-70.726116 74.68941,-122.061212 144.183793,-122.061212c69.131601,0 129.701564,51.002765 144.043517,121.285773a10.835068,11.279119 0 0 0 7.255626,8.383809c33.250114,11.264013 58.876984,40.242284 66.872683,75.625484a10.839905,11.284154 0 0 0 13.002081,8.39388z"/>
   <path stroke="null" id="svg_24" d="m219.236946,388.303728c-4.169566,-1.087629 -11.638024,-1.611303 -22.821361,-1.611303l-18.666306,0a4.774202,4.969862 0 0 0 -4.774202,4.969862l0,97.564376a4.774202,4.969862 0 0 0 4.774202,4.969862l9.364594,0a4.774202,4.969862 0 0 0 4.774202,-4.969862l0,-40.398379l1.934834,0c12.092709,0 20.277055,-0.563956 24.949678,-1.727115c6.829962,-1.712009 12.305541,-5.151133 16.276787,-10.216666s6.046355,-11.581238 6.046355,-19.224855s-2.084783,-14.098898 -6.201141,-19.260102a28.780648,29.960159 0 0 0 -15.65764,-10.095818zm-16.199394,41.239278l-11.149478,-0.140989l0,-23.2229l11.79281,0c7.081491,0 10.390056,0.745227 11.913737,1.374643a9.316223,9.698028 0 0 1 4.47914,3.887268a10.675444,11.112953 0 0 1 1.770373,6.253868a10.888276,11.334507 0 0 1 -1.770373,6.384787a9.708027,10.105889 0 0 1 -4.764528,3.982939c-1.639771,0.674733 -5.117635,1.475349 -12.271681,1.480384z"/>
   <path stroke="null" id="svg_25" d="m343.042105,386.702496l-1.499496,0a4.774202,4.969862 0 0 0 -4.285656,2.779497l-33.47262,70.998024l-33.801541,-71.028236a4.774202,4.969862 0 0 0 -4.266308,-2.749285l-1.518844,0a4.769365,4.964826 0 0 0 -4.725831,4.264917l-13.427745,97.554306a4.774202,4.969862 0 0 0 4.725831,5.674807l9.045347,0a4.774202,4.969862 0 0 0 4.730668,-4.300164l7.110513,-54.285794l26.623309,55.826602a4.774202,4.969862 0 0 0 4.275982,2.759356l2.394356,0a4.774202,4.969862 0 0 0 4.275982,-2.769426l26.260528,-55.287823l7.139536,53.787297a4.774202,4.969862 0 0 0 4.725831,4.290093l9.190459,0a4.769365,4.964826 0 0 0 4.725831,-5.674807l-13.500301,-97.589553a4.774202,4.969862 0 0 0 -4.725831,-4.249811z"/>
   <path stroke="null" id="svg_26" d="m406.108003,386.702496l-18.414778,0a4.774202,4.969862 0 0 0 -4.072825,2.376671l-5.611017,9.56711a4.774202,4.969862 0 0 0 4.072825,7.552981l9.945044,0l0,83.027405a4.774202,4.969862 0 0 0 4.774202,4.969862l9.301712,0a4.774202,4.969862 0 0 0 4.774202,-4.969862l0,-97.569412a4.774202,4.969862 0 0 0 -4.769365,-4.954756z"/>
   <path stroke="null" id="svg_27" d="m504.087972,409.215415c-3.202149,-8.147149 -7.690963,-14.401018 -13.345514,-18.580334a32.611619,33.948133 0 0 0 -19.266105,-6.394857a31.992472,33.303612 0 0 0 -19.048436,6.369681c-5.577158,4.179316 -9.916022,10.302266 -12.900502,18.202685c-2.90225,7.688935 -4.314679,18.041555 -4.314679,31.667133c0,13.539978 1.451125,23.887562 4.377561,31.636921c3.028014,7.970913 7.371716,14.098898 12.905339,18.227861a31.924753,33.233117 0 0 0 18.966205,6.304222a32.635804,33.97331 0 0 0 19.348335,-6.465352c5.693248,-4.224634 10.186898,-10.478503 13.345514,-18.59544c3.086059,-7.92056 4.585555,-18.096943 4.585555,-31.113247c0.004837,-12.885386 -1.562378,-23.404171 -4.653275,-31.259272zm-23.513064,65.408818c-5.543298,4.380729 -11.846018,4.461294 -17.616659,-0.095671c-2.90225,-2.306177 -5.195028,-5.851043 -6.771917,-10.528856c-1.707491,-5.090709 -2.573329,-12.94581 -2.573329,-23.353818s0.875512,-18.323532 2.597514,-23.404171c1.586563,-4.682848 3.869667,-8.222679 6.738058,-10.51375s5.712596,-3.333382 8.832515,-3.333382c3.037689,0 5.896405,1.092665 8.74061,3.338418s5.248236,6.117915 7.008934,11.410037c1.896137,5.699983 2.858717,13.26807 2.858717,22.497813s-1.088344,17.059667 -3.25052,23.489772c-1.533356,4.733202 -3.753577,8.262961 -6.563923,10.493609z"/>
   <path stroke="null" id="svg_28" d="m242.111516,296.424228a10.946321,11.394931 0 1 0 -10.946321,-11.394931a10.960832,11.410037 0 0 0 10.946321,11.394931z"/>
   <path stroke="null" id="svg_29" d="m253.057836,348.776459a10.946321,11.394931 0 1 0 -10.946321,11.394931a10.955995,11.405002 0 0 0 10.946321,-11.394931z"/>
   <path stroke="null" id="svg_30" d="m242.111516,232.677067a10.946321,11.394931 0 1 0 -10.946321,-11.394931a10.960832,11.410037 0 0 0 10.946321,11.394931z"/>
   <path stroke="null" id="svg_31" d="m194.611353,328.292774a10.946321,11.394931 0 1 0 -10.946321,-11.394931a10.955995,11.405002 0 0 0 10.946321,11.394931z"/>
   <path stroke="null" id="svg_32" d="m194.611353,264.550648a10.946321,11.394931 0 1 0 -10.946321,-11.394931a10.955995,11.405002 0 0 0 10.946321,11.394931z"/>
   <path stroke="null" id="svg_33" d="m147.082168,273.634366a10.946321,11.394931 0 1 0 10.946321,11.394931a10.960832,11.410037 0 0 0 -10.946321,-11.394931z"/>
   <path stroke="null" id="svg_34" d="m289.626189,328.292774a10.946321,11.394931 0 1 0 -10.946321,-11.394931a10.955995,11.405002 0 0 0 10.946321,11.394931z"/>
   <path stroke="null" id="svg_35" d="m289.626189,264.550648a10.946321,11.394931 0 1 0 -10.946321,-11.394931a10.960832,11.410037 0 0 0 10.946321,11.394931z"/>
   <path stroke="null" id="svg_36" d="m348.087184,285.029297a10.946321,11.394931 0 1 0 -10.946321,11.394931a10.960832,11.410037 0 0 0 10.946321,-11.394931z"/>
  </g>
 </g>
</svg>