<svg width="960" height="960" xmlns="http://www.w3.org/2000/svg">
 <!-- Created with UXWing SVG Editor - https://uxwing.com/svg-icon-editor/ -->

 <g>
  <title>background</title>
  <rect fill="none" id="canvas_background" height="962" width="962" y="-1" x="-1"/>
  <g display="none" overflow="visible" y="0" x="0" height="100%" width="100%" id="canvasGrid">
   <rect fill="url(#gridpattern)" stroke-width="0" y="0" x="0" height="100%" width="100%"/>
  </g>
 </g>
 <g>
  <title>Layer 1</title>
  <g stroke="null" id="svg_18">
   <path stroke="null" id="svg_5" d="m957.596491,548.191656c-18.422645,-78.367254 -75.464397,-143.19896 -150.282892,-171.958382c-37.211621,-148.312175 -172.609865,-254.695988 -326.556077,-254.695988c-154.871683,0 -290.520575,107.213504 -327.047733,256.625503a244.324178,244.508149 0 0 0 -151.902465,226.139165c0,131.756936 102.38016,238.430176 233.546305,243.929294a22.008842,22.025414 0 0 0 3.190945,0.231542l37.414068,0a21.594309,21.610569 0 1 0 0,-43.230785l-35.04255,0c-0.559138,-0.057885 -1.118277,-0.096476 -1.687055,-0.115771c-108.935575,-3.492422 -194.223454,-91.700203 -194.223454,-200.81428a201.048798,201.200183 0 0 1 134.347449,-189.661683a21.584668,21.600921 0 0 0 14.036301,-16.014975c27.956918,-135.509843 148.865766,-233.857226 287.368191,-233.857226c137.769761,0 258.495444,97.72029 287.069341,232.361852a21.594309,21.610569 0 0 0 14.460475,16.063213c66.267535,21.571978 117.341931,77.093774 133.287014,144.896934a21.594309,21.610569 0 0 0 42.05106,-9.898412l-0.028921,0z"/>
   <path stroke="null" id="svg_6" d="m492.422305,633.476222c-8.309953,-2.083876 -23.194601,-3.087224 -45.483013,-3.087224l-37.201981,0a9.514992,9.522157 0 0 0 -9.514992,9.522157l0,186.941067a9.514992,9.522157 0 0 0 9.514992,9.522157l18.663653,0a9.514992,9.522157 0 0 0 9.514992,-9.522157l0,-77.441087l3.856127,0c24.100791,0 40.412206,-1.080528 49.724752,-3.309118c13.612127,-3.280176 24.524965,-9.86947 32.439665,-19.57493s12.050395,-22.189423 12.050395,-36.834443s-4.154976,-27.013211 -12.358886,-36.901976a57.359882,57.403073 0 0 0 -31.205704,-19.314446zm-32.28542,79.013642l-22.220929,-0.270132l0,-44.48497l23.47417,0c14.113423,0 20.7074,1.427841 23.744099,2.633788a18.567249,18.58123 0 0 1 8.926933,7.447928a21.276178,21.292199 0 0 1 3.528356,11.982289a21.700352,21.716692 0 0 1 -3.528356,12.233126a19.348115,19.362684 0 0 1 -9.495712,7.631232c-3.239146,1.283128 -10.170534,2.817092 -24.428562,2.82674z"/>
   <path stroke="null" id="svg_7" d="m739.166203,630.388998l-3.027059,0a9.514992,9.522157 0 0 0 -8.54132,5.325462l-66.710989,136.030812l-67.32797,-136.069402a9.514992,9.522157 0 0 0 -8.52204,-5.296519l-3.027059,0a9.505352,9.512509 0 0 0 -9.418589,8.171496l-26.742238,186.950714a9.514992,9.522157 0 0 0 9.418589,10.872817l18.027392,0a9.514992,9.522157 0 0 0 9.428229,-8.239029l14.171265,-104.010509l53.060301,106.95302a9.514992,9.522157 0 0 0 8.52204,5.286871l4.771957,0a9.514992,9.522157 0 0 0 8.52204,-5.306166l52.337278,-105.930377l14.229107,103.016809a9.514992,9.522157 0 0 0 9.418589,8.219734l18.316601,0a9.505352,9.512509 0 0 0 9.418589,-10.872817l-26.906123,-186.941067a9.514992,9.522157 0 0 0 -9.418589,-8.161849z"/>
   <path stroke="null" id="svg_8" d="m864.856648,630.388998l-36.700684,0a9.514992,9.522157 0 0 0 -8.117146,4.553656l-11.182767,18.330393a9.514992,9.522157 0 0 0 8.117146,14.471363l19.82049,0l0,159.107812a9.514992,9.522157 0 0 0 9.514992,9.522157l18.538328,0a9.514992,9.522157 0 0 0 9.514992,-9.522157l0,-186.941067a9.514992,9.522157 0 0 0 -9.505352,-9.522157z"/>
   <path stroke="null" id="svg_9" d="m481.827597,456.124845a21.816036,21.832463 0 1 0 -21.816036,-21.832463a21.844957,21.861406 0 0 0 21.816036,21.832463z"/>
   <path stroke="null" id="svg_10" d="m481.827597,578.253501a21.816036,21.832463 0 1 0 -21.816036,-21.793873a21.844957,21.861406 0 0 0 21.816036,21.793873z"/>
   <path stroke="null" id="svg_11" d="m481.827597,333.976894a21.816036,21.832463 0 1 0 -21.816036,-21.832463a21.844957,21.861406 0 0 0 21.816036,21.832463z"/>
   <path stroke="null" id="svg_12" d="m408.946805,495.351886a21.816036,21.832463 0 1 0 -21.787115,21.832463a21.844957,21.861406 0 0 0 21.787115,-21.832463z"/>
   <path stroke="null" id="svg_13" d="m387.15969,395.036398a21.816036,21.832463 0 1 0 -21.816036,-21.832463a21.835317,21.851758 0 0 0 21.816036,21.832463z"/>
   <path stroke="null" id="svg_14" d="m292.433941,412.450272a21.816036,21.832463 0 1 0 21.816036,21.832463a21.835317,21.851758 0 0 0 -21.816036,-21.832463z"/>
   <path stroke="null" id="svg_15" d="m576.524425,517.184349a21.816036,21.832463 0 1 0 -21.816036,-21.832463a21.844957,21.861406 0 0 0 21.816036,21.832463z"/>
   <path stroke="null" id="svg_16" d="m576.524425,395.036398a21.816036,21.832463 0 1 0 -21.816036,-21.832463a21.835317,21.851758 0 0 0 21.816036,21.832463z"/>
   <path stroke="null" id="svg_17" d="m693.037289,434.282735a21.816036,21.832463 0 1 0 -21.816036,21.842111a21.835317,21.851758 0 0 0 21.816036,-21.842111z"/>
  </g>
 </g>
</svg>